<?xml version="1.0" encoding="UTF-8"?>
<svg width="175px" height="125px" viewBox="0 0 175 125" version="1.1" xmlns="http://www.w3.org/2000/svg" xmlns:xlink="http://www.w3.org/1999/xlink">
    <!-- Generator: Sketch 50.2 (55047) - http://www.bohemiancoding.com/sketch -->
    <title>Group</title>
    <desc>Created with Sketch.</desc>
    <defs></defs>
    <g id="Page-1" stroke="none" stroke-width="1" fill="none" fill-rule="evenodd">
        <g id="Group" fill="#FFFFFF">
            <path d="M57.1502645,0.0430871801 L158.339517,0.0430871801 C167.107208,0.0430871801 174.214825,7.15070494 174.214825,15.9183958 C174.214825,24.6860866 167.107208,31.7937044 158.339517,31.7937044 L57.1502645,31.7937044 C48.3825736,31.7937044 41.2749559,24.6860866 41.2749559,15.9183958 C41.2749559,7.15070494 48.3825736,0.0430871801 57.1502645,0.0430871801 Z" id="Rectangle" opacity="0.200000003"></path>
            <path d="M57.1502645,0.0430871801 L66.9100032,0.0430871801 C75.6776941,0.0430871801 82.7853118,7.15070494 82.7853118,15.9183958 C82.7853118,24.6860866 75.6776941,31.7937044 66.9100032,31.7937044 L57.1502645,31.7937044 C48.3825736,31.7937044 41.2749559,24.6860866 41.2749559,15.9183958 C41.2749559,7.15070494 48.3825736,0.0430871801 57.1502645,0.0430871801 Z" id="Rectangle-Copy-5"></path>
            <path d="M35.6973374,45.4916826 L158.339517,45.4916826 C167.107208,45.4916826 174.214825,52.5993004 174.214825,61.3669912 C174.214825,70.1346821 167.107208,77.2422998 158.339517,77.2422998 L35.6973374,77.2422998 C26.9296466,77.2422998 19.8220288,70.1346821 19.8220288,61.3669912 C19.8220288,52.5993004 26.9296466,45.4916826 35.6973374,45.4916826 Z" id="Rectangle-Copy" opacity="0.200000003"></path>
            <path d="M35.6973374,45.4916826 L86.4702967,45.4916826 C95.2379876,45.4916826 102.345605,52.5993004 102.345605,61.3669912 C102.345605,70.1346821 95.2379876,77.2422998 86.4702967,77.2422998 L35.6973374,77.2422998 C26.9296466,77.2422998 19.8220288,70.1346821 19.8220288,61.3669912 C19.8220288,52.5993004 26.9296466,45.4916826 35.6973374,45.4916826 Z" id="Rectangle-Copy-4"></path>
            <path d="M100.692702,92.794195 L156.515041,92.794195 C165.282732,92.794195 172.390349,99.9018127 172.390349,108.669504 C172.390349,117.437194 165.282732,124.544812 156.515041,124.544812 L100.692702,124.544812 C91.9250111,124.544812 84.8173933,117.437194 84.8173933,108.669504 C84.8173933,99.9018127 91.9250111,92.794195 100.692702,92.794195 Z" id="Rectangle-Copy-2" opacity="0.200000003"></path>
            <path d="M100.692702,92.794195 L110.452441,92.794195 C119.220132,92.794195 126.327749,99.9018127 126.327749,108.669504 C126.327749,117.437194 119.220132,124.544812 110.452441,124.544812 L100.692702,124.544812 C91.9250111,124.544812 84.8173933,117.437194 84.8173933,108.669504 C84.8173933,99.9018127 91.9250111,92.794195 100.692702,92.794195 Z" id="Rectangle-Copy-6"></path>
            <path d="M15.9427328,92.794195 L25.7024716,92.794195 C34.4701624,92.794195 41.5777802,99.9018127 41.5777802,108.669504 C41.5777802,117.437194 34.4701624,124.544812 25.7024716,124.544812 L15.9427328,124.544812 C7.17504193,124.544812 0.0674241664,117.437194 0.0674241664,108.669504 C0.0674241664,99.9018127 7.17504193,92.794195 15.9427328,92.794195 Z" id="Rectangle-Copy-3"></path>
        </g>
    </g>
</svg>